<svg t="1674651602766" class="icon" viewBox="0 0 1097 1024" version="1.1" xmlns="http://www.w3.org/2000/svg" p-id="9049" id="mx_n_1674651602769" width="200" height="200"><path d="M512.004023 512c0-80.566857-65.718857-146.285714-146.285714-146.285714s-146.285714 65.718857-146.285715 146.285714 65.718857 146.285714 146.285715 146.285714 146.285714-65.718857 146.285714-146.285714z m438.857143 292.571429c0-40.009143-33.133714-73.142857-73.142857-73.142858s-73.142857 33.133714-73.142858 73.142858c0 40.557714 33.133714 73.142857 73.142858 73.142857 40.557714 0 73.142857-33.133714 73.142857-73.142857z m0-585.142858c0-40.009143-33.133714-73.142857-73.142857-73.142857s-73.142857 33.133714-73.142858 73.142857c0 40.557714 33.133714 73.142857 73.142858 73.142858 40.557714 0 73.142857-33.133714 73.142857-73.142858z m-219.428572 240.566858v105.728c0 7.424-5.705143 16.018286-13.129143 17.152l-88.576 13.714285a261.12 261.12 0 0 1-18.285714 43.446857c16.018286 22.857143 33.133714 43.995429 51.419429 65.718858a19.602286 19.602286 0 0 1 3.986285 11.446857 15.104 15.104 0 0 1-3.986285 10.861714c-11.446857 15.433143-75.446857 85.138286-92.013715 85.138286a21.686857 21.686857 0 0 1-11.995428-3.986286l-65.718857-51.419429a244.772571 244.772571 0 0 1-43.995429 17.700572c-2.852571 29.147429-5.705143 60.562286-13.129143 88.576a18.212571 18.212571 0 0 1-17.152 13.714286H312.580023c-8.009143 0-16.018286-6.290286-17.152-14.299429l-13.129143-87.442286a283.977143 283.977143 0 0 1-42.861714-17.700571l-67.437715 50.870857a16.457143 16.457143 0 0 1-11.446857 3.986286 18.468571 18.468571 0 0 1-11.995428-4.571429c-14.848-13.714286-82.285714-74.861714-82.285715-91.428571 0-3.986286 1.718857-7.424 3.986286-10.861715 16.566857-21.723429 33.718857-42.861714 50.285714-65.133714a305.188571 305.188571 0 0 1-20.004571-46.848l-86.857143-13.714286a16.603429 16.603429 0 0 1-13.714286-16.566857v-105.728c0-7.424 5.705143-16.018286 13.129143-17.152l88.576-13.714285a261.12 261.12 0 0 1 18.285715-43.446858 934.656 934.656 0 0 0-51.419429-65.718857c-2.304-3.437714-3.986286-7.424-3.986286-11.446857s1.133714-8.009143 3.986286-11.446857c11.446857-15.433143 75.446857-84.553143 92.013714-84.553143 4.571429 0 8.557714 1.718857 11.995429 3.986286l65.718857 51.419428a299.666286 299.666286 0 0 1 43.995429-18.285714c2.852571-28.562286 5.705143-60.013714 13.129142-87.990857A18.212571 18.212571 0 0 1 312.543451 146.285714h106.276572c8.009143 0 16.018286 6.290286 17.152 14.299429l13.129143 87.442286c14.848 4.571429 29.147429 10.861714 42.861714 17.700571l67.437714-50.870857a17.517714 17.517714 0 0 1 11.446857-3.986286c4.571429 0 8.557714 1.718857 11.995429 4.571429 14.848 13.714286 82.285714 75.446857 82.285714 91.428571a19.675429 19.675429 0 0 1-3.986285 10.861714c-16.566857 22.272-33.718857 42.861714-49.700572 65.133715 7.424 15.433143 14.299429 30.866286 19.419429 46.848l86.857143 13.129143c8.009143 1.718857 13.714286 9.142857 13.714285 17.152z m365.714286 304.566857v80.018285c0 8.557714-73.728 16.566857-85.138286 17.700572a137.874286 137.874286 0 0 1-17.152 29.696c5.156571 11.446857 29.147429 68.571429 29.147429 78.848 0 1.718857-0.585143 2.852571-2.304 3.986286-6.838857 3.986286-67.986286 40.557714-70.838857 40.557714-7.424 0-50.285714-57.161143-55.990857-65.718857-5.705143 0.585143-11.446857 1.133714-17.152 1.133714s-11.446857-0.585143-17.152-1.133714c-5.705143 8.557714-48.566857 65.718857-55.990858 65.718857-2.852571 0-64-36.571429-70.838857-40.557714a4.937143 4.937143 0 0 1-2.304-3.986286c0-9.728 23.990857-67.437714 29.147429-78.848a140.288 140.288 0 0 1-17.152-29.696c-11.446857-1.133714-85.138286-9.142857-85.138286-17.700572v-80.018285c0-8.557714 73.728-16.566857 85.138286-17.700572 4.571429-10.276571 10.276571-20.553143 17.152-29.696-5.156571-11.446857-29.147429-69.156571-29.147429-78.848 0-1.133714 0.585143-2.852571 2.304-3.986285 6.838857-3.437714 67.986286-40.009143 70.838857-40.009143 7.424 0 50.285714 56.576 55.990858 65.133714 5.705143-0.585143 11.446857-1.133714 17.152-1.133714s11.446857 0.585143 17.152 1.133714c16.018286-22.272 33.133714-44.580571 52.553142-64l3.437715-1.133714c2.852571 0 64 35.986286 70.838857 40.009143a4.937143 4.937143 0 0 1 2.304 3.986285c0 10.276571-23.990857 67.437714-29.147429 78.848 6.838857 9.142857 12.580571 19.419429 17.152 29.696 11.446857 1.133714 85.138286 9.142857 85.138286 17.700572z m0-585.142857v79.981714c0 8.557714-73.728 16.566857-85.138286 17.700571a137.874286 137.874286 0 0 1-17.152 29.696c5.156571 11.446857 29.147429 68.571429 29.147429 78.848 0 1.718857-0.585143 2.852571-2.304 3.986286-6.838857 3.986286-67.986286 40.557714-70.838857 40.557714-7.424 0-50.285714-57.161143-55.990857-65.718857-5.705143 0.585143-11.446857 1.133714-17.152 1.133714s-11.446857-0.585143-17.152-1.133714c-5.705143 8.557714-48.566857 65.718857-55.990858 65.718857-2.852571 0-64-36.571429-70.838857-40.557714a4.937143 4.937143 0 0 1-2.304-3.986286c0-9.728 23.990857-67.437714 29.147429-78.848a140.288 140.288 0 0 1-17.152-29.696C731.981166 275.968 658.289737 267.958857 658.289737 259.401143V179.382857c0-8.557714 73.728-16.566857 85.138286-17.700571 4.571429-10.276571 10.276571-20.553143 17.152-29.696C755.423451 120.539429 731.432594 62.829714 731.432594 53.138286c0-1.133714 0.585143-2.852571 2.304-3.986286C740.575451 45.714286 801.72288 9.142857 804.575451 9.142857c7.424 0 50.285714 56.576 55.990858 65.133714 5.705143-0.585143 11.446857-1.133714 17.152-1.133714s11.446857 0.585143 17.152 1.133714c16.018286-22.272 33.133714-44.580571 52.553142-64L950.861166 9.142857c2.852571 0 64 35.986286 70.838857 40.009143a4.937143 4.937143 0 0 1 2.304 3.986286c0 10.276571-23.990857 67.437714-29.147429 78.848 6.838857 9.142857 12.580571 19.419429 17.152 29.696 11.446857 1.133714 85.138286 9.142857 85.138286 17.700571z" fill="#808080" p-id="9050"></path></svg>