<svg t="1674653654340" class="icon" viewBox="0 0 1024 1024" version="1.1" xmlns="http://www.w3.org/2000/svg" p-id="9753" width="200" height="200"><path d="M652 888H372a4 4 0 0 0-4 4v64a4 4 0 0 0 4 4h280a4 4 0 0 0 4-4v-64a4 4 0 0 0-4-4zM512 64c-176.7 0-320 143.3-320 320 0 124.9 71.6 233.1 176 285.8V776a40 40 0 0 0 40 40h208a40 40 0 0 0 40-40V669.8C760.4 617.1 832 508.9 832 384c0-176.7-143.3-320-320-320z m189.3 320a32.1 32.1 0 0 1-31.5-26.8 160.6 160.6 0 0 0-131-131 32 32 0 0 1 10.3-63.1 223.9 223.9 0 0 1 183.8 183.8 31.9 31.9 0 0 1-31.6 37.1z" p-id="9754"></path></svg>