<svg t="1674653858868" class="icon" viewBox="0 0 1129 1024" version="1.1" xmlns="http://www.w3.org/2000/svg" p-id="11277" width="200" height="200"><path d="M406.068966 752.64a17.655172 17.655172 0 0 1-12.535173-5.12 17.655172 17.655172 0 0 1-5.12-12.535172v-101.517242c-4.06069-3.707586-11.122759-9.533793-15.006896-12.711724l-10.416552-9.18069a308.965517 308.965517 0 0 1-57.202759-91.806896 305.434483 305.434483 0 0 1 32.132414-286.013793A271.536552 271.536552 0 0 1 564.965517 114.758621h4.413793a286.366897 286.366897 0 0 1 257.942069 191.205517c42.725517 115.641379 4.590345 249.291034-94.631724 335.448276v91.277241a17.655172 17.655172 0 0 1-17.655172 17.655173l-308.965517 2.295172zM564.965517 150.068966a236.57931 236.57931 0 0 0-197.384827 103.812413 269.594483 269.594483 0 0 0-28.248276 252.822069A274.008276 274.008276 0 0 0 388.413793 587.917241l6.885517 5.649656C416.308966 610.515862 423.724138 617.931034 423.724138 627.641379v89.511724l273.831724-2.295172v-82.096552a17.655172 17.655172 0 0 1 6.355862-13.594482c92.513103-75.917241 128.882759-196.855172 90.571035-300.137931A251.056552 251.056552 0 0 0 567.966897 150.068966zM691.376552 820.082759H423.724138a17.655172 17.655172 0 0 1 0-35.310345h267.652414a17.655172 17.655172 0 0 1 0 35.310345zM641.588966 890.173793h-151.834483a17.655172 17.655172 0 1 1 0-35.310345h151.834483a17.655172 17.655172 0 0 1 0 35.310345z" fill="#808080" p-id="11278"></path><path d="M509.351724 376.408276h-31.77931c1.942069-52.965517 29.837241-81.743448 83.332414-84.921379 46.433103 2.118621 70.62069 25.776552 74.328275 70.620689a99.222069 99.222069 0 0 1-36.369655 69.737931c-17.655172 16.242759-25.246897 28.777931-24.364138 37.958621v31.77931h-33.368276V474.924138c0-17.655172 11.122759-37.252414 33.368276-60.557241 21.362759-20.303448 31.955862-37.958621 31.955862-52.965518a44.137931 44.137931 0 0 0-45.550344-45.373793c-33.368276 1.765517-50.493793 22.068966-51.553104 60.38069z m66.736552 157.66069v33.368275h-36.369655v-33.368275z" fill="#808080" p-id="11279"></path></svg>