<svg t="1674657172069" class="icon" viewBox="0 0 1024 1024" version="1.1" xmlns="http://www.w3.org/2000/svg" p-id="8926" width="200" height="200"><path d="M170.666667 512m-85.333334 0a85.333333 85.333333 0 1 0 170.666667 0 85.333333 85.333333 0 1 0-170.666667 0Z" fill="#808080" p-id="8927"></path><path d="M512 277.333333m-64 0a64 64 0 1 0 128 0 64 64 0 1 0-128 0Z" fill="#808080" p-id="8928"></path><path d="M512 746.666667m-64 0a64 64 0 1 0 128 0 64 64 0 1 0-128 0Z" fill="#808080" p-id="8929"></path><path d="M512 512m-64 0a64 64 0 1 0 128 0 64 64 0 1 0-128 0Z" fill="#808080" p-id="8930"></path><path d="M896 691.2m-42.666667 0a42.666667 42.666667 0 1 0 85.333334 0 42.666667 42.666667 0 1 0-85.333334 0Z" fill="#808080" p-id="8931"></path><path d="M896 452.266667m-42.666667 0a42.666667 42.666667 0 1 0 85.333334 0 42.666667 42.666667 0 1 0-85.333334 0Z" fill="#808080" p-id="8932"></path><path d="M896 571.733333m-42.666667 0a42.666667 42.666667 0 1 0 85.333334 0 42.666667 42.666667 0 1 0-85.333334 0Z" fill="#808080" p-id="8933"></path><path d="M896 810.666667m-42.666667 0a42.666667 42.666667 0 1 0 85.333334 0 42.666667 42.666667 0 1 0-85.333334 0Z" fill="#808080" p-id="8934"></path><path d="M896 332.8m-42.666667 0a42.666667 42.666667 0 1 0 85.333334 0 42.666667 42.666667 0 1 0-85.333334 0Z" fill="#808080" p-id="8935"></path><path d="M896 213.333333m-42.666667 0a42.666667 42.666667 0 1 0 85.333334 0 42.666667 42.666667 0 1 0-85.333334 0Z" fill="#808080" p-id="8936"></path><path d="M160 490.666667h362.666667v42.666666h-362.666667z" fill="#808080" opacity=".6" p-id="8937"></path><path d="M522.666667 744.533333l-2.133334-10.666666h-10.666666c-17.066667 0-106.666667 2.133333-160-78.933334-55.466667-83.2-130.133333-132.266667-157.866667-149.333333-2.133333-2.133333-6.4-4.266667-6.4-4.266667l-8.533333-17.066666L149.333333 537.6h14.933334c10.666667 6.4 91.733333 53.333333 151.466666 140.8 59.733333 89.6 157.866667 96 185.6 96h6.4l19.2 19.2-4.266666-49.066667z" fill="#808080" opacity=".6" p-id="8938"></path><path d="M539.733333 256h-10.666666c-29.866667-2.133333-134.4 0-198.4 96-61.866667 91.733333-153.6 140.8-153.6 140.8l-10.666667 4.266667 21.333333 38.4 8.533334-4.266667s98.133333-53.333333 168.533333-155.733333c53.333333-78.933333 142.933333-78.933333 162.133333-78.933334h10.666667l2.133333-32V256z" fill="#808080" opacity=".6" p-id="8939"></path><path d="M514.133333 522.666667l-2.133333-21.333334c2.133333 0 162.133333-23.466667 228.266667-42.666666 68.266667-21.333333 153.6-17.066667 157.866666-17.066667v21.333333s-87.466667-2.133333-151.466666 17.066667c-68.266667 19.2-226.133333 42.666667-232.533334 42.666667z" fill="#808080" opacity=".6" p-id="8940"></path><path d="M883.2 588.8c-27.733333 0-91.733333-2.133333-145.066667-17.066667-64-19.2-226.133333-42.666667-228.266666-42.666666l2.133333-21.333334c6.4 0 164.266667 23.466667 230.4 42.666667 64 19.2 151.466667 17.066667 151.466667 17.066667v21.333333h-10.666667zM522.666667 281.6l-2.133334-21.333333c2.133333 0 162.133333-23.466667 228.266667-42.666667 68.266667-21.333333 153.6-17.066667 157.866667-17.066667v21.333334s-87.466667-2.133333-151.466667 17.066666c-68.266667 19.2-226.133333 42.666667-232.533333 42.666667z" fill="#808080" opacity=".6" p-id="8941"></path><path d="M891.733333 347.733333c-27.733333 0-91.733333-2.133333-145.066666-17.066666-64-19.2-226.133333-42.666667-228.266667-42.666667l2.133333-21.333333c6.4 0 164.266667 23.466667 230.4 42.666666 64 19.2 151.466667 17.066667 151.466667 17.066667v21.333333h-10.666667zM514.133333 761.6l-2.133333-21.333333c2.133333 0 162.133333-23.466667 228.266667-42.666667 68.266667-21.333333 153.6-17.066667 157.866666-17.066667v21.333334s-87.466667-2.133333-151.466666 17.066666c-68.266667 19.2-226.133333 40.533333-232.533334 42.666667z" fill="#808080" opacity=".6" p-id="8942"></path><path d="M883.2 827.733333c-27.733333 0-91.733333-2.133333-145.066667-17.066666-64-19.2-226.133333-42.666667-228.266666-42.666667l2.133333-21.333333c6.4 0 164.266667 23.466667 230.4 42.666666 64 19.2 149.333333 17.066667 151.466667 17.066667v21.333333h-10.666667z" fill="#808080" opacity=".6" p-id="8943"></path></svg>